<?xml version="1.0" encoding="utf-8"?>
<svg viewBox="191.674 111.711 89.879 89.842" width="89.879" height="89.842" xmlns="http://www.w3.org/2000/svg">
    <defs>
        <style type="text/css">
            .st0{fill:#142533;}
        </style>
    </defs>
    <path class="st0"
          d="M 44.852 -11.823 L 33.822 -11.823 L 33.822 3.057 L 48.722 3.057 L 48.722 -7.973 C 48.722 -10.083 46.982 -11.823 44.872 -11.823 C 44.862 -11.823 44.852 -11.823 44.852 -11.823 Z"
          transform="matrix(3.72324, 0, 0, 3.72324, 100, 155.731003)" style="fill: rgb(255, 255, 255);"/>
    <path class="st0"
          d="M 30.382 -11.823 L 28.482 -11.823 C 26.372 -11.823 24.632 -10.083 24.632 -7.973 L 24.632 -6.073 L 30.382 -6.073 L 30.382 -11.823 Z"
          transform="matrix(3.72324, 0, 0, 3.72324, 100, 155.731003)" style="fill: rgb(255, 255, 255);"/>
    <path class="st0" d="M 24.622 -2.633 L 30.372 -2.633 L 30.372 3.117 L 24.622 3.117 L 24.622 -2.633 Z"
          transform="matrix(3.72324, 0, 0, 3.72324, 100, 155.731003)" style="fill: rgb(255, 255, 255);"/>
    <path class="st0"
          d="M 43.012 12.267 L 44.912 12.267 C 47.022 12.267 48.762 10.527 48.762 8.417 C 48.762 8.417 48.762 8.407 48.762 8.407 L 48.762 6.567 L 43.012 6.567 L 43.012 12.267 Z"
          transform="matrix(3.72324, 0, 0, 3.72324, 100, 155.731003)" style="fill: rgb(255, 255, 255);"/>
    <path class="st0" d="M 33.822 6.557 L 39.572 6.557 L 39.572 12.307 L 33.822 12.307 L 33.822 6.557 Z"
          transform="matrix(3.72324, 0, 0, 3.72324, 100, 155.731003)" style="fill: rgb(255, 255, 255);"/>
    <path class="st0"
          d="M 24.622 6.557 L 24.622 8.457 C 24.622 10.567 26.362 12.307 28.472 12.307 L 30.372 12.307 L 30.372 6.557 L 24.622 6.557 Z"
          transform="matrix(3.72324, 0, 0, 3.72324, 100, 155.731003)" style="fill: rgb(255, 255, 255);"/>
</svg>