<?xml version="1.0" encoding="utf-8"?>
<svg viewBox="116.992 126.969 194.221 282.191" xmlns="http://www.w3.org/2000/svg">
    <path id="path7"
          d="M 214.259 126.969 C 175.547 126.969 144.219 158.298 144.219 197.009 L 144.219 223.26 C 130.625 225.72 116.992 229.002 116.992 233.26 L 116.992 370.253 C 116.992 370.253 116.992 374.042 121.25 375.839 C 136.68 382.089 197.384 403.574 211.329 408.496 C 213.126 409.16 213.634 409.16 214.102 409.16 C 214.767 409.16 215.079 409.16 216.876 408.496 C 230.821 403.574 291.681 382.089 307.111 375.839 C 311.057 374.199 311.213 370.41 311.213 370.41 L 311.213 233.26 C 311.213 229.002 297.775 225.564 284.142 223.26 L 284.142 197.009 C 284.338 158.298 252.814 126.969 214.259 126.969 Z M 214.259 160.446 C 237.071 160.446 250.861 174.236 250.861 197.048 L 250.861 219.861 C 225.274 218.064 203.438 218.064 177.696 219.861 L 177.696 197.048 C 177.696 174.196 191.485 160.446 214.259 160.446 Z M 214.102 253.455 C 245.939 253.455 272.658 255.916 272.658 260.33 L 272.658 345.8 C 272.658 347.128 272.502 347.284 271.33 347.753 C 270.197 348.261 217.032 367.441 217.032 367.441 C 217.032 367.441 214.884 368.105 214.259 368.105 C 213.595 368.105 211.485 367.285 211.485 367.285 C 211.485 367.285 158.321 348.105 157.188 347.597 C 156.055 347.089 155.86 346.933 155.86 345.644 L 155.86 260.174 C 155.547 255.76 182.266 253.455 214.102 253.455 Z"
          style="fill: rgb(255, 255, 255);"/>
</svg>